<mxfile host="app.diagrams.net" modified="2023-11-10T17:24:32.694Z" agent="Mozilla/5.0 (Windows NT 10.0; Win64; x64) AppleWebKit/537.36 (KHTML, like Gecko) Chrome/116.0.0.0 Safari/537.36 OPR/102.0.0.0" version="22.1.0" etag="5ToFQJuvOb9Cn2Nx5lLa" type="github">
  <diagram name="Page-1" id="y8pDYiig4jgTpKXIE6TI">
    <mxGraphModel>
      <root>
        <mxCell id="0" />
        <mxCell id="1" parent="0" />
      </root>
    </mxGraphModel>
  </diagram>
</mxfile>
